<?xml version="1.0" encoding="UTF-8" standalone="no"?><!-- Generator: Gravit.io --><svg xmlns="http://www.w3.org/2000/svg" xmlns:xlink="http://www.w3.org/1999/xlink" style="isolation:isolate" viewBox="0 0 32 32" width="32pt" height="32pt"><defs><clipPath id="_clipPath_hC0YCcLhnjmcDD8D8uRLniHwTuzWLYBL"><rect width="32" height="32"/></clipPath></defs><g clip-path="url(#_clipPath_hC0YCcLhnjmcDD8D8uRLniHwTuzWLYBL)"><g><g><g><path d=" M 3.333 14 C 1.496 14 0 15.496 0 17.333 L 0 28 C 0 29.837 1.496 31.333 3.333 31.333 L 7.333 31.333 C 8.084 31.333 8.775 31.08 9.333 30.659 L 9.333 14 L 3.333 14 Z " fill="rgb(255,255,255)"/></g></g><g><g><path d=" M 32 19 C 32 18.199 31.683 17.452 31.132 16.901 C 31.755 16.22 32.072 15.307 31.985 14.356 C 31.829 12.661 30.303 11.333 28.508 11.333 L 20.272 11.333 C 20.68 10.095 21.333 7.824 21.333 6 C 21.333 3.108 18.876 0.667 17.333 0.667 C 15.948 0.667 14.959 1.447 14.916 1.479 C 14.759 1.605 14.667 1.797 14.667 2 L 14.667 6.521 L 10.827 14.84 L 10.667 14.921 L 10.667 29.212 C 11.752 29.724 13.125 30 14 30 L 26.239 30 C 27.691 30 28.961 29.021 29.26 27.671 C 29.413 26.976 29.324 26.276 29.019 25.668 C 30.004 25.172 30.667 24.157 30.667 23 C 30.667 22.528 30.559 22.076 30.353 21.667 C 31.339 21.171 32 20.156 32 19 Z " fill="rgb(255,255,255)"/></g></g></g></g></svg>